<mxfile host="65bd71144e">
    <diagram id="HQrdQHDWeG2NqUIadJca" name="第 1 页">
        <mxGraphModel dx="949" dy="561" grid="1" gridSize="10" guides="1" tooltips="1" connect="1" arrows="1" fold="1" page="1" pageScale="1" pageWidth="827" pageHeight="1169" math="1" shadow="0">
            <root>
                <mxCell id="0"/>
                <mxCell id="1" parent="0"/>
                <mxCell id="16" value="" style="group" vertex="1" connectable="0" parent="1">
                    <mxGeometry x="70" y="450" width="630" height="100" as="geometry"/>
                </mxCell>
                <mxCell id="3" value="$$L^{CLIP}(\theta) = \hat{E}_t[\min(r_t(\theta)\hat{A}_t, \mathrm{clip}(r_t(\theta), 1-\epsilon,1+\epsilon)\hat{A}_t)]$$" style="text;html=1;align=center;verticalAlign=middle;resizable=0;points=[];autosize=1;strokeColor=none;fillColor=none;" vertex="1" parent="16">
                    <mxGeometry y="40" width="630" height="30" as="geometry"/>
                </mxCell>
                <mxCell id="15" value="" style="group" vertex="1" connectable="0" parent="16">
                    <mxGeometry x="220" width="336" height="100" as="geometry"/>
                </mxCell>
                <mxCell id="4" value="" style="endArrow=none;html=1;entryX=0.508;entryY=0.333;entryDx=0;entryDy=0;entryPerimeter=0;fillColor=#dae8fc;strokeColor=#6c8ebf;" edge="1" parent="15">
                    <mxGeometry width="50" height="50" relative="1" as="geometry">
                        <mxPoint x="20" y="42" as="sourcePoint"/>
                        <mxPoint x="100.04000000000019" y="41.99000000000001" as="targetPoint"/>
                    </mxGeometry>
                </mxCell>
                <mxCell id="5" value="&lt;font style=&quot;color: rgb(108, 142, 191);&quot;&gt;和TRPO的&lt;/font&gt;&lt;div&gt;&lt;font style=&quot;color: rgb(108, 142, 191);&quot;&gt;目标函数一样&lt;/font&gt;&lt;/div&gt;" style="text;html=1;align=center;verticalAlign=middle;resizable=0;points=[];autosize=1;strokeColor=none;fillColor=none;" vertex="1" parent="15">
                    <mxGeometry x="10" width="100" height="40" as="geometry"/>
                </mxCell>
                <mxCell id="6" value="" style="endArrow=none;html=1;entryX=0.762;entryY=0.167;entryDx=0;entryDy=0;entryPerimeter=0;fillColor=#f8cecc;strokeColor=#b85450;" edge="1" parent="15">
                    <mxGeometry width="50" height="50" relative="1" as="geometry">
                        <mxPoint x="110" y="42" as="sourcePoint"/>
                        <mxPoint x="260.05999999999995" y="42.00999999999999" as="targetPoint"/>
                    </mxGeometry>
                </mxCell>
                <mxCell id="11" value="" style="group" vertex="1" connectable="0" parent="15">
                    <mxGeometry x="90" y="10" width="246" height="30" as="geometry"/>
                </mxCell>
                <mxCell id="7" value="将&amp;nbsp; &amp;nbsp; &amp;nbsp; &amp;nbsp; 裁剪到范围&amp;nbsp; &amp;nbsp; &amp;nbsp; &amp;nbsp; &amp;nbsp; &amp;nbsp; &amp;nbsp; &amp;nbsp; &amp;nbsp; &amp;nbsp; &amp;nbsp; &amp;nbsp; &amp;nbsp;内" style="text;html=1;align=center;verticalAlign=middle;resizable=0;points=[];autosize=1;strokeColor=none;fillColor=none;fontColor=#B85450;" vertex="1" parent="11">
                    <mxGeometry x="6" width="220" height="30" as="geometry"/>
                </mxCell>
                <mxCell id="8" value="$$r(\theta)$$" style="text;html=1;align=center;verticalAlign=middle;resizable=0;points=[];autosize=1;strokeColor=none;fillColor=none;fontColor=#B85450;" vertex="1" parent="11">
                    <mxGeometry width="90" height="30" as="geometry"/>
                </mxCell>
                <mxCell id="9" value="$$(1-\epsilon,1+\epsilon)$$" style="text;html=1;align=center;verticalAlign=middle;resizable=0;points=[];autosize=1;strokeColor=none;fillColor=none;fontColor=#B85450;" vertex="1" parent="11">
                    <mxGeometry x="76" width="170" height="30" as="geometry"/>
                </mxCell>
                <mxCell id="13" value="" style="endArrow=none;html=1;exitX=0.389;exitY=0.967;exitDx=0;exitDy=0;exitPerimeter=0;fillColor=#d5e8d4;strokeColor=#82b366;" edge="1" parent="15">
                    <mxGeometry width="50" height="50" relative="1" as="geometry">
                        <mxPoint x="19.999999999999943" y="70" as="sourcePoint"/>
                        <mxPoint x="260" y="70" as="targetPoint"/>
                    </mxGeometry>
                </mxCell>
                <mxCell id="14" value="&lt;font style=&quot;color: rgb(130, 179, 102);&quot;&gt;取TRPO的目标函数和裁剪过的目标函数的最小值&lt;/font&gt;" style="text;html=1;align=center;verticalAlign=middle;resizable=0;points=[];autosize=1;strokeColor=none;fillColor=none;" vertex="1" parent="15">
                    <mxGeometry y="70" width="280" height="30" as="geometry"/>
                </mxCell>
            </root>
        </mxGraphModel>
    </diagram>
</mxfile>